# xmcd
#
# Track frame offsets: 
#        150
#        18088
#        36309
#        54334
#        72543
#        89759
#        109082
#        126599
#        146426
#
# Disc length: 2247 seconds
#
# Revision: 0
# Processed by: cddbd v1.5.2PL0 Copyright (c) Steve Scherf et al.
# Submitted via: ExactAudioCopy v0.99pb4
#
DISCID=8208c509
DTITLE=Smokey Robinson - One Heartbeat
DYEAR=1987
DGENRE=R and B
TTITLE0=Just to See Her
TTITLE1=One Heartbeat
TTITLE2=It's Time to Stop Shoppin' Around
TTITLE3=Why Do Happy Memories Hurt So Bad
TTITLE4=You Don't Know what It's Like
TTITLE5=What's Too Much
TTITLE6=Love Brought Us Here Tonight
TTITLE7=Love Don't Give No Reason
TTITLE8=Keep Me
EXTD=
EXTT0=
EXTT1=
EXTT2=
EXTT3=
EXTT4=
EXTT5=
EXTT6=
EXTT7=
EXTT8=
PLAYORDER=
